<svg xmlns="http://www.w3.org/2000/svg" width="44" height="45" viewBox="0 0 44 45">
    <g fill="#D61F3D" fill-rule="evenodd">
        <path fill-rule="nonzero" d="M43.85 25.083l-4.131-7.926C39.347 16.443 38.636 16 37.863 16H6.137c-.773 0-1.484.443-1.856 1.157l-4.13 7.926c-.219.42-.198.928.053 1.328.233.37.629.591 1.059.591h3.363v15.945c0 1.132.875 2.053 1.95 2.053h30.849c1.074 0 1.949-.92 1.949-2.053v-6.845a.66.66 0 0 0-.668-.65.66.66 0 0 0-.668.65v6.846c0 .406-.28.75-.614.75H22.668V19.37l3.483 6.684c.305.585.89.948 1.528.948h10.359v6.062c0 .36.299.651.668.651a.66.66 0 0 0 .668-.651v-6.062h3.363c.43 0 .826-.22 1.06-.591.25-.4.27-.908.052-1.328zM1.334 25.7c0-.008.002-.017.006-.027l4.131-7.926c.143-.274.398-.445.665-.445h14.775l-4.254 8.162c-.076.146-.205.236-.336.236H1.335zm19.997 17.998H6.576c-.333 0-.614-.344-.614-.75V27.002h10.36c.64 0 1.223-.365 1.527-.948l3.483-6.684v24.328zM27.68 25.7c-.132 0-.261-.09-.337-.236l-4.253-8.162h14.774c.267 0 .522.17.665.445l4.13 7.926c.006.01.007.019.007.027H27.68z"/>
        <path d="M22 1.998C20.534-.3 17.246-.688 15.267 1.25A4.156 4.156 0 0 0 14 4.243c.003 3.264 2.238 6.423 6.132 8.668a.665.665 0 0 0 .9-.227.635.635 0 0 0-.232-.88c-1.648-.95-5.481-3.59-5.485-7.562-.002-1.77 1.593-3.162 3.414-2.922 1.628.215 2.192 1.465 2.317 1.593.58.592 1.373.594 1.92-.018.145-.165.85-1.608 2.705-1.61 1.66 0 3.012 1.32 3.014 2.944.004 3.782-3.438 6.368-5.49 7.573a.635.635 0 0 0-.225.881c.187.305.591.403.902.22C27.827 10.583 30.003 7.5 30 4.228 29.995.09 24.434-1.67 22 1.998z"/>
    </g>
</svg>
