<svg xmlns="http://www.w3.org/2000/svg" width="174" height="39" viewBox="0 0 174 39">
    <path fill="#FFF" fill-rule="evenodd" d="M149.165.35s6.512-.679 7.657 13.784c.445-.34 3.283-6.064 8.052-6.064 4.77 0 5.766 7.136 5.567 10.487-.199 3.348 1.79 13.007 3.284 16.457.348.726.942 3.688-2.437 3.98-3.38.292-5.12-8.834-5.12-8.834a84.2 84.2 0 0 1-1.537-14.575c0-.727-.25-2.184-1.295-.679-1.043 1.505-4.623 7.426-4.623 7.426a3.484 3.484 0 0 1-3.132 1.7c-2.285 0-3.727-2.96-4.174-7.814a35.488 35.488 0 0 0-1.79-9.127c-.298-.388-.398-1.262-1.293.195a50.677 50.677 0 0 0-5.417 12.864c-1.84 6.744-3.381 13.783-3.381 13.783s-.399 2.767-2.785 2.767c-2.385 0-3.23-1.7-2.683-4.077.549-2.379 3.43-15.288 5.566-20.241 2.138-4.95 4.82-11.697 9.541-12.038V.35zM112.68 16.512a.56.56 0 0 0 .249.756l.048.02c1.993.538 4.048.815 6.113.827 3.083 0 9.147-1.36 9.147-5.582 0-4.224-2.882-7.039-5.318-7.039-2.435 0-8.997 3.343-10.24 11.013v.005zm-2.784 19.22s-2.685-.145-2.983-2.233c-.298-2.086-.797-8.251-.797-10.242 0-1.99.598-21.456 16.753-23.257 1.344 0 10.938 1.505 10.938 12.864 0 9.852-12.181 10.724-14.219 10.724a58.013 58.013 0 0 1-7.604-.874c-.002 2.966.146 5.93.446 8.88.298 2.34-.048 3.844-2.534 4.139zm-21.16-18.05s3.205.366 3.205 2.877c0 2.222-2.198 3.06-3.766 3.06-1.549-.023-2.786-1.282-2.765-2.814.002-.051.002-.1.006-.154-.004-1.73 2.01-2.968 3.314-2.968h.005zM49.4.83s5.295-.145 5.89 8.154v5.897S59.916 9.42 65.433 9.42c5.517 0 7.006 7.716 6.488 14.053-.08 3.354.071 6.712.446 10.047.203 1.555-.908 2.978-2.482 3.178a3.075 3.075 0 0 1-.35.025s-3.058-.51-3.058-3.203c0-2.692-.3-5.316-.218-8.083.079-2.767.67-8.447-.747-10.047-1.419-1.602-5.668 2.84-7.234 4.44-1.565 1.599-2.458 3.058-5.144 3.058-2.685 0-3.207-3.526-3.356-5.259 0 0 .037-7.882-.108-8.974-.147-1.094-.375-1.859-.636-1.859-.26 0-2.273 1.241-3.914 5.242a82.286 82.286 0 0 0-5.145 17.292c-.373 2.004.15 4.479-3.056 4.406-3.207-.074-2.797-3.312-2.724-3.899.076-.585 1.717-11.284 4.588-17.325C41.652 6.473 44.102 1.266 49.397.83h.003zM10.87 15.05s3.977.195 6.02.535c2.044.34 5.27.922 5.27.922s0-8.69-3.831-10.678c-.497-.194-2.196.63-3.758 2.717a30.874 30.874 0 0 0-3.7 6.504zm-6.065.485C9.08 1.606 17.084.2 18.128.2c9.395 1.212 9.693 14.803 9.892 17.91.2 3.106.895 11.893 1.094 13.2.126 1.592-1.077 2.98-2.683 3.102l-.099.006c-1.79 0-2.784-1.99-2.884-2.767-.099-.776-.595-9.61-.744-9.707a39.263 39.263 0 0 0-6.02-.921c-2.388-.148-6.215-.536-7.507-.729-.348.581-3.33 11.6-3.58 12.596-.373 1.532-1.935 2.478-3.485 2.107a2.947 2.947 0 0 1-.441-.141C-.765 34.029.181 30.92.181 30.92s.35-1.453 4.624-15.386z"/>
</svg>
